<?xml version="1.0" encoding="UTF-8"?>
<svg width="752pt" height="752pt" version="1.1" viewBox="0 0 752 752" xmlns="http://www.w3.org/2000/svg">
 <g>
  <path d="m329.12 328.17c0 26.047 20.836 46.883 46.883 46.883s46.883-20.836 46.883-46.883c0.003907-26.047-20.836-46.883-46.883-46.883s-46.883 20.836-46.883 46.883zm56.355-18.469c0 5.2109-4.2617 9.4727-9.4727 9.4727-4.7344 0-8.9961 4.2617-8.9961 8.9961s4.2617 8.9961 8.9961 8.9961 8.9961-4.2617 8.9961-8.9961c0-5.2109 4.2617-9.4727 9.4727-9.4727s9.4727 4.2617 9.4727 9.4727c0 15.629-12.312 27.941-27.941 27.941s-27.941-12.312-27.941-27.941c0-15.629 12.312-27.941 27.941-27.941 5.2109 0 9.4727 4.2656 9.4727 9.4727z"/>
  <path d="m233.93 329.59c0 125.03 110.35 212.16 136.39 231.11h-55.883c-5.2109 0-9.4727 4.2617-9.4727 9.4727s4.2617 9.4727 9.4727 9.4727h123.13c5.2109 0 9.4727-4.2617 9.4727-9.4727s-4.2617-9.4727-9.4727-9.4727h-55.887c26.047-18.945 136.39-106.08 136.39-231.11 0-78.613-63.461-142.07-142.07-142.07s-142.07 63.461-142.07 142.07zm207.9-1.4219c0 36.465-29.363 65.828-65.828 65.828s-65.828-29.363-65.828-65.828c0-36.465 29.363-65.824 65.828-65.824 36.469 0 65.828 29.359 65.828 65.824zm-65.828-109.39c5.2109 0 9.4727 4.2617 9.4727 9.4727 0 5.2109-4.2617 9.4727-9.4727 9.4727-52.094 0-94.242 42.148-94.242 94.242 0 84.293 72.934 152.96 94.242 171.43 21.312-18.469 94.242-87.141 94.242-170.96 0-5.2109 4.2617-9.4727 9.4727-9.4727 5.2109 0 9.4727 4.2617 9.4727 9.4727 0 44.516-18.469 91.875-53.988 136.39-26.047 33.148-52.094 53.516-53.516 54.461-1.8945 1.4219-3.7891 1.8945-5.6836 1.8945s-4.2617-0.47266-5.6836-1.8945c-0.94531-0.94531-26.992-20.836-53.516-54.461-35.516-44.992-53.984-92.348-53.984-136.87 0-62.039 50.672-113.18 113.18-113.18z"/>
 </g>
</svg>
